<?xml version="1.0" encoding="utf-8"?>
<svg version="1.1" xmlns:xlink="http://www.w3.org/1999/xlink" width="11px" height="12px" xmlns="http://www.w3.org/2000/svg">
  <g transform="matrix(1 0 0 1 -880 -64 )">
    <path d="M 3.9296875 4.5703125  C 3.9765625 4.6171875  4 4.67708333333333  4 4.75  L 4 9.25  C 4 9.32291666666667  3.9765625 9.3828125  3.9296875 9.4296875  C 3.8828125 9.4765625  3.82291666666667 9.5  3.75 9.5  L 3.25 9.5  C 3.17708333333333 9.5  3.1171875 9.4765625  3.0703125 9.4296875  C 3.0234375 9.3828125  3 9.32291666666667  3 9.25  L 3 4.75  C 3 4.67708333333333  3.0234375 4.6171875  3.0703125 4.5703125  C 3.1171875 4.5234375  3.17708333333333 4.5  3.25 4.5  L 3.75 4.5  C 3.82291666666667 4.5  3.8828125 4.5234375  3.9296875 4.5703125  Z M 5.9296875 4.5703125  C 5.9765625 4.6171875  6 4.67708333333333  6 4.75  L 6 9.25  C 6 9.32291666666667  5.9765625 9.3828125  5.9296875 9.4296875  C 5.8828125 9.4765625  5.82291666666667 9.5  5.75 9.5  L 5.25 9.5  C 5.17708333333333 9.5  5.1171875 9.4765625  5.0703125 9.4296875  C 5.0234375 9.3828125  5 9.32291666666667  5 9.25  L 5 4.75  C 5 4.67708333333333  5.0234375 4.6171875  5.0703125 4.5703125  C 5.1171875 4.5234375  5.17708333333333 4.5  5.25 4.5  L 5.75 4.5  C 5.82291666666667 4.5  5.8828125 4.5234375  5.9296875 4.5703125  Z M 7.9296875 4.5703125  C 7.9765625 4.6171875  8 4.67708333333333  8 4.75  L 8 9.25  C 8 9.32291666666667  7.9765625 9.3828125  7.9296875 9.4296875  C 7.8828125 9.4765625  7.82291666666667 9.5  7.75 9.5  L 7.25 9.5  C 7.17708333333333 9.5  7.1171875 9.4765625  7.0703125 9.4296875  C 7.0234375 9.3828125  7 9.32291666666667  7 9.25  L 7 4.75  C 7 4.67708333333333  7.0234375 4.6171875  7.0703125 4.5703125  C 7.1171875 4.5234375  7.17708333333333 4.5  7.25 4.5  L 7.75 4.5  C 7.82291666666667 4.5  7.8828125 4.5234375  7.9296875 4.5703125  Z M 8.9453125 10.72265625  C 8.98177083333333 10.6263020833333  9 10.5208333333333  9 10.40625  L 9 3  L 2 3  L 2 10.40625  C 2 10.5208333333333  2.01822916666667 10.6263020833333  2.0546875 10.72265625  C 2.09114583333333 10.8190104166667  2.12890625 10.8893229166667  2.16796875 10.93359375  C 2.20703125 10.9778645833333  2.234375 11  2.25 11  L 8.75 11  C 8.765625 11  8.79296875 10.9778645833333  8.83203125 10.93359375  C 8.87109375 10.8893229166667  8.90885416666667 10.8190104166667  8.9453125 10.72265625  Z M 4.1328125 1.0859375  L 3.75 2  L 7.25 2  L 6.875 1.0859375  C 6.83854166666667 1.0390625  6.79427083333333 1.01041666666667  6.7421875 1  L 4.265625 1  C 4.21354166666667 1.01041666666667  4.16927083333333 1.0390625  4.1328125 1.0859375  Z M 10.9296875 2.0703125  C 10.9765625 2.1171875  11 2.17708333333333  11 2.25  L 11 2.75  C 11 2.82291666666667  10.9765625 2.8828125  10.9296875 2.9296875  C 10.8828125 2.9765625  10.8229166666667 3  10.75 3  L 10 3  L 10 10.40625  C 10 10.8385416666667  9.87760416666667 11.2122395833333  9.6328125 11.52734375  C 9.38802083333333 11.8424479166667  9.09375 12  8.75 12  L 2.25 12  C 1.90625 12  1.61197916666667 11.84765625  1.3671875 11.54296875  C 1.12239583333333 11.23828125  1 10.8697916666667  1 10.4375  L 1 3  L 0.25 3  C 0.177083333333333 3  0.1171875 2.9765625  0.0703125 2.9296875  C 0.0234375 2.8828125  0 2.82291666666667  0 2.75  L 0 2.25  C 0 2.17708333333333  0.0234375 2.1171875  0.0703125 2.0703125  C 0.1171875 2.0234375  0.177083333333333 2  0.25 2  L 2.6640625 2  L 3.2109375 0.6953125  C 3.2890625 0.502604166666666  3.4296875 0.338541666666666  3.6328125 0.203125  C 3.8359375 0.0677083333333326  4.04166666666667 0  4.25 0  L 6.75 0  C 6.95833333333333 0  7.1640625 0.0677083333333326  7.3671875 0.203125  C 7.5703125 0.338541666666666  7.7109375 0.502604166666666  7.7890625 0.6953125  L 8.3359375 2  L 10.75 2  C 10.8229166666667 2  10.8828125 2.0234375  10.9296875 2.0703125  Z " fill-rule="nonzero" fill="#636c8c" stroke="none" transform="matrix(1 0 0 1 880 64 )" />
  </g>
</svg>