<?xml version="1.0" encoding="utf-8"?>
<svg version="1.1" xmlns:xlink="http://www.w3.org/1999/xlink" width="10px" height="10px" xmlns="http://www.w3.org/2000/svg">
  <g transform="matrix(1 0 0 1 -881 -21 )">
    <path d="M 1.68976897689769 9.15511551155116  L 2.3960396039604 9.15511551155116  L 2.996699669967 8.55445544554455  L 1.44554455445545 7.003300330033  L 0.844884488448845 7.6039603960396  L 0.844884488448845 8.31023102310231  L 1.68976897689769 8.31023102310231  L 1.68976897689769 9.15511551155116  Z M 5.8019801980198 3.14191419141914  C 5.83278327832783 3.11111111111111  5.84818481848185 3.07370737073707  5.84818481848185 3.02970297029703  C 5.84818481848185 2.93289328932893  5.7997799779978 2.88448844884488  5.7029702970297 2.88448844884488  C 5.65896589658966 2.88448844884488  5.62156215621562 2.8998899889989  5.59075907590759 2.93069306930693  L 2.01320132013201 6.50825082508251  C 1.98239823982398 6.53905390539054  1.96699669966997 6.57645764576458  1.96699669966997 6.62046204620462  C 1.96699669966997 6.71727172717272  2.01540154015402 6.76567656765677  2.11221122112211 6.76567656765677  C 2.15621562156216 6.76567656765677  2.19361936193619 6.75027502750275  2.22442244224422 6.71947194719472  L 5.8019801980198 3.14191419141914  Z M 0 7.25412541254125  L 5.49174917491749 1.76237623762376  L 8.23762376237624 4.50825082508251  L 2.74587458745875 10  L 0 10  L 0 7.25412541254125  Z M 9.75577557755776 1.7953795379538  C 9.91859185918592 1.96699669966997  10 2.16721672167217  10 2.3960396039604  C 10 2.62926292629263  9.91859185918592 2.82728272827283  9.75577557755776 2.99009900990099  L 8.66006600660066 4.08580858085809  L 5.91419141914191 1.33993399339934  L 7.00990099009901 0.25082508250825  C 7.16831683168317 0.0836083608360827  7.36633663366337 0  7.6039603960396 0  C 7.83718371837184 0  8.03740374037404 0.0836083608360827  8.2046204620462 0.25082508250825  L 9.75577557755776 1.7953795379538  Z " fill-rule="nonzero" fill="#636c8c" stroke="none" transform="matrix(1 0 0 1 881 21 )" />
  </g>
</svg>